:FULLY-SPECIFIED
:FORCE-ALL-JOINTS-BE-3DOF
:DEGREES
2344
root 1.41746 14.3458 -18.833 -164.495 -50.2133 172.76
lfemur -18.8575 -4.88493 10.2609
ltibia 23.3903 -0 0
lfoot -9.69618 16.3767 -0.678417
ltoes -34.9035 0 0
rfemur -66.4573 -9.86593 8.13917
rtibia 77.4354 -0 0
rfoot -13.4737 -12.889 -0.051848
rtoes 0.586062 -0 0
lowerback 21.667 2.63687 -2.90928
upperback 0.904814 2.66164 0.167684
thorax -11.3429 1.34954 1.05437
lowerneck -6.2376 -2.67529 -5.03066
upperneck 2.42688 -3.19526 0.5467
head 1.87266 -1.63805 0.929401
lclavicle -1.70955e-14 1.59028e-15 0
lhumerus -36.9412 -20.2216 86.2981
lradius 103.171 -0 0
lwrist 74.0564 0 0
lhand -16.3636 38.7776 0.0371778
lfingers 7.12502 -0 0
lthumb 9.85082 68.649 0.034315
rclavicle -1.70955e-14 1.59028e-15 0
rhumerus 47.1735 6.94361 -41.7417
rradius 49.3603 -0 0
rwrist 3.91098 0 0
rhand -7.13673 -40.2549 -0.066348
rfingers 7.12502 -0 0
rthumb 18.7447 -69.4474 -0.0826503
2345
root 1.53188 14.4046 -18.9858 -164.098 -51.3659 172.591
lfemur -20.3313 -4.89902 10.6691
ltibia 22.8999 -0 0
lfoot -9.25404 15.5225 -0.673353
ltoes -33.9225 0 0
rfemur -66.1162 -9.3307 7.85966
rtibia 77.257 -0 0
rfoot -13.8485 -12.775 -0.0474528
rtoes 0.413284 -0 0
lowerback 21.6421 2.61526 -2.8846
upperback 0.861056 2.63972 0.171729
thorax -11.3714 1.34044 1.0499
lowerneck -6.23578 -2.52613 -4.89819
upperneck 2.52716 -3.00349 0.436152
head 1.89506 -1.54904 0.864591
lclavicle -1.70955e-14 1.59028e-15 0
lhumerus -35.8823 -20.6976 85.835
lradius 103.697 -0 0
lwrist 74.7114 0 0
lhand -16.5442 38.9748 0.00292689
lfingers 7.12502 -0 0
lthumb 9.67651 68.855 0.000894188
rclavicle -1.70955e-14 1.59028e-15 0
rhumerus 46.6027 7.01506 -41.5566
rradius 49.503 -0 0
rwrist 3.88054 0 0
rhand -7.19959 -40.4857 -0.0612781
rfingers 7.12502 -0 0
rthumb 18.684 -69.6785 -0.0769619
2346
root 1.64629 14.4633 -19.1386 -163.552 -53.0892 172.28
lfemur -21.9416 -4.82961 10.9188
ltibia 22.7189 -0 0
lfoot -8.79343 14.6951 -0.658286
ltoes -32.8992 0 0
rfemur -65.7027 -8.69717 7.62974
rtibia 77.0711 -0 0
rfoot -14.2696 -12.6981 -0.0375952
rtoes 0.23407 -0 0
lowerback 21.603 2.58345 -2.83395
upperback 0.806908 2.61253 0.181037
thorax -11.4027 1.32788 1.03809
lowerneck -6.22866 -2.3198 -4.72538
upperneck 2.65306 -2.73679 0.277546
head 1.92748 -1.42326 0.782464
lclavicle -1.70955e-14 1.59028e-15 0
lhumerus -34.4427 -21.3991 85.3621
lradius 104.247 -0 0
lwrist 74.8923 0 0
lhand -16.8116 39.1519 -0.0268005
lfingers 7.12502 -0 0
lthumb 9.41841 69.0407 -0.028089
rclavicle -1.70955e-14 1.59028e-15 0
rhumerus 45.8969 7.32878 -41.3925
rradius 49.827 -0 0
rwrist 3.78632 0 0
rhand -7.22716 -40.7205 -0.0563596
rfingers 7.12502 -0 0
rthumb 18.6571 -69.9089 -0.0709612
2347
root 1.76071 14.522 -19.2915 -162.781 -55.5097 171.756
lfemur -23.7407 -4.66778 10.9953
ltibia 22.9023 -0 0
lfoot -8.30155 13.8855 -0.63074
ltoes -31.8185 0 0
rfemur -65.1987 -7.93735 7.45894
rtibia 76.8758 -0 0
rfoot -14.7486 -12.6893 -0.0229977
rtoes 0.0428843 -0 0
lowerback 21.5569 2.53864 -2.74376
upperback 0.743345 2.57996 0.197957
thorax -11.4392 1.31108 1.01368
lowerneck -6.22013 -2.03791 -4.49949
upperneck 2.80543 -2.37038 0.0543031
head 1.97044 -1.24848 0.677115
lclavicle -1.70955e-14 1.59028e-15 0
lhumerus -32.5156 -22.3587 84.8445
lradius 104.825 -0 0
lwrist 74.5103 0 0
lhand -17.1742 39.2859 -0.049679
lfingers 7.12502 -0 0
lthumb 9.06831 69.183 -0.0503585
rclavicle -1.70955e-14 1.59028e-15 0
rhumerus 45.0325 7.94432 -41.2486
rradius 50.3939 -0 0
rwrist 3.59265 0 0
rhand -7.20166 -40.9579 -0.0514966
rfingers 7.12502 -0 0
rthumb 18.6811 -70.1357 -0.0645511
